<svg id="color" enable-background="new 0 0 24 24" height="512" viewBox="0 0 24 24" width="512" xmlns="http://www.w3.org/2000/svg"><path d="m16 22h-2v-2h-4v2h-2c-.552 0-1 .448-1 1s.448 1 1 1h8c.553 0 1-.448 1-1s-.447-1-1-1z" fill="#90a4ae"/><path d="m22.25 4h-20.5c-.965 0-1.75.785-1.75 1.75v12.5c0 .965.785 1.75 1.75 1.75h20.5c.965 0 1.75-.785 1.75-1.75v-12.5c0-.965-.785-1.75-1.75-1.75z" fill="#607d8b"/><path d="m22 18h-20v-12h20z" fill="#f5f5f5"/><path d="m15 3.25h-1.5v-1.5c0-.138-.112-.25-.25-.25h-2.5c-.138 0-.25.112-.25.25v1.5h-1.5v-1.5c0-.965.785-1.75 1.75-1.75h2.5c.965 0 1.75.785 1.75 1.75z" fill="#607d8b"/><path d="m12 7.581-6-2.857v-.474c0-.965.785-1.75 1.75-1.75h8.5c.965 0 1.75.785 1.75 1.75v.474z" fill="#64b5f6"/><path d="m16.25 10.5h-8.5c-.965 0-1.75-.785-1.75-1.75v-4.25l6 2 6-2v4.25c0 .965-.785 1.75-1.75 1.75z" fill="#2196f3"/><path d="m12 20h-2v2h-2c-.552 0-1 .448-1 1s.448 1 1 1h4z" fill="#7d8f97"/><path d="m6.018 4h-4.268c-.965 0-1.75.785-1.75 1.75v12.5c0 .965.785 1.75 1.75 1.75h10.25v-2h-10v-12h4v-1.276-.474c0-.085.006-.168.018-.25z" fill="#546d79"/><path d="m6 6h-4v12h10v-7.5h-4.25c-.965 0-1.75-.785-1.75-1.75z" fill="#d5d5d5"/><path d="m12 0h-1.25c-.965 0-1.75.785-1.75 1.75v.75h1.5v-.75c0-.138.112-.25.25-.25h1.25z" fill="#546d79"/><path d="m12 2.5h-1.5-1.5-1.25c-.88 0-1.611.653-1.732 1.5-.012.082-.018.165-.018.25v.474-.224l6 2z" fill="#579ed6"/><path d="m6 4.5v.224 1.276 2.75c0 .965.785 1.75 1.75 1.75h4.25v-4z" fill="#1d83d4"/></svg>